<?xml version="1.0" encoding="iso-8859-1"?>
<!-- Generator: Adobe Illustrator 16.0.0, SVG Export Plug-In . SVG Version: 6.00 Build 0)  -->
<!DOCTYPE svg PUBLIC "-//W3C//DTD SVG 1.1//EN" "http://www.w3.org/Graphics/SVG/1.1/DTD/svg11.dtd">
<svg version="1.1" id="Capa_1" xmlns="http://www.w3.org/2000/svg" xmlns:xlink="http://www.w3.org/1999/xlink" x="0px" y="0px"
	 width="600.443px" height="600.443px" viewBox="0 0 600.443 600.443" style="enable-background:new 0 0 600.443 600.443;"
	 xml:space="preserve">
<g>
	<g>
		<path d="M447.928,152.667c-2.577-2.577-5.217-5.074-7.907-7.502V58.64c0-32.059-26.081-58.14-58.14-58.14H218.562
			c-32.059,0-58.14,26.082-58.14,58.14v86.527c-2.69,2.427-5.329,4.924-7.907,7.501c-19.17,19.17-34.226,41.505-44.749,66.385
			c-10.904,25.78-16.433,53.141-16.433,81.322c0,28.18,5.529,55.541,16.433,81.322c10.523,24.879,25.579,47.213,44.749,66.383
			c2.577,2.578,5.216,5.074,7.907,7.502v86.221c0,32.059,26.082,58.141,58.14,58.141h163.318c32.059,0,58.14-26.082,58.14-58.141
			v-86.221c2.69-2.428,5.33-4.924,7.907-7.502c19.17-19.17,34.226-41.504,44.749-66.385c10.904-25.779,16.433-53.141,16.433-81.32
			c0-28.181-5.528-55.542-16.433-81.322C482.153,194.173,467.099,171.838,447.928,152.667z M440.021,390.008
			c-11.319,17.619-25.883,32.951-42.84,45.17c-27.281,19.658-60.766,31.246-96.959,31.246c-36.194,0-69.677-11.588-96.959-31.246
			c-16.958-12.219-31.521-27.551-42.84-45.17c-16.612-25.855-26.249-56.619-26.249-89.633c0-33.016,9.637-63.779,26.249-89.635
			c11.32-17.618,25.883-32.951,42.84-45.169c27.282-19.657,60.765-31.245,96.959-31.245c36.194,0,69.678,11.587,96.959,31.245
			c16.957,12.218,31.521,27.551,42.84,45.169c16.612,25.856,26.249,56.619,26.249,89.635
			C466.27,333.389,456.633,364.152,440.021,390.008z M203.263,58.64c0-8.451,6.85-15.3,15.3-15.3h163.318
			c8.45,0,15.3,6.85,15.3,15.3v56.682c-5.094-2.668-10.304-5.146-15.637-7.402c-25.781-10.904-53.142-16.433-81.322-16.433
			S244.68,97.016,218.9,107.92c-5.334,2.256-10.543,4.733-15.638,7.402L203.263,58.64L203.263,58.64z M397.181,541.803
			c0,8.449-6.85,15.301-15.3,15.301H218.562c-8.45,0-15.3-6.852-15.3-15.301v-56.375c5.094,2.668,10.303,5.145,15.638,7.402
			c25.78,10.904,53.141,16.432,81.321,16.432s55.541-5.527,81.322-16.434c5.334-2.256,10.543-4.732,15.637-7.4V541.803
			L397.181,541.803z"/>
		<path d="M381.881,600.443H218.562c-32.334,0-58.64-26.306-58.64-58.641v-85.998c-2.708-2.449-5.318-4.928-7.76-7.371
			c-19.215-19.215-34.307-41.603-44.856-66.542c-10.93-25.843-16.472-53.27-16.472-81.517c0-28.249,5.542-55.675,16.472-81.517
			c10.549-24.94,25.641-47.329,44.856-66.543c2.454-2.454,5.064-4.932,7.76-7.37V58.64c0-32.334,26.306-58.64,58.64-58.64h163.318
			c32.334,0,58.64,26.306,58.64,58.64v86.303c2.707,2.448,5.317,4.927,7.761,7.371c19.215,19.215,34.307,41.604,44.856,66.544
			c10.93,25.841,16.472,53.268,16.472,81.517c0,28.249-5.542,55.675-16.472,81.515c-10.549,24.939-25.641,47.328-44.856,66.544
			c-2.438,2.439-5.049,4.919-7.761,7.371v85.998C440.521,574.138,414.215,600.443,381.881,600.443z M218.562,1
			c-31.783,0-57.64,25.857-57.64,57.64v86.749l-0.165,0.149c-2.742,2.475-5.396,4.993-7.888,7.484
			c-19.124,19.123-34.144,41.405-44.642,66.226c-10.877,25.718-16.393,53.013-16.393,81.127c0,28.113,5.516,55.408,16.393,81.128
			c10.499,24.819,25.518,47.101,44.642,66.224c2.48,2.48,5.134,4.999,7.888,7.484l0.165,0.148v86.443
			c0,31.783,25.857,57.641,57.64,57.641h163.318c31.782,0,57.64-25.857,57.64-57.641v-86.443l0.165-0.148
			c2.758-2.489,5.412-5.007,7.889-7.484c19.125-19.125,34.145-41.406,44.642-66.226c10.878-25.717,16.394-53.012,16.394-81.126
			c0-28.115-5.516-55.41-16.394-81.127c-10.498-24.821-25.519-47.103-44.642-66.227c-2.48-2.481-5.135-4.999-7.889-7.484
			l-0.165-0.149V58.64c0-31.783-25.857-57.64-57.64-57.64H218.562z M381.881,557.604H218.562c-8.712,0-15.8-7.088-15.8-15.801
			v-57.201l0.732,0.383c5.164,2.705,10.413,5.189,15.601,7.385c25.715,10.878,53.01,16.393,81.126,16.393
			c28.117,0,55.412-5.516,81.128-16.394c5.183-2.192,10.431-4.677,15.599-7.384l0.732-0.383v57.201
			C397.681,550.516,390.593,557.604,381.881,557.604z M203.763,486.252v55.551c0,8.161,6.639,14.801,14.8,14.801h163.318
			c8.161,0,14.8-6.64,14.8-14.801v-55.551c-4.956,2.572-9.979,4.938-14.942,7.037c-25.839,10.931-53.265,16.473-81.517,16.473
			c-28.251,0-55.677-5.542-81.516-16.472C213.738,491.188,208.714,488.822,203.763,486.252z M300.222,466.924
			c-35.168,0-68.797-10.837-97.251-31.341c-17.125-12.34-31.583-27.582-42.969-45.305c-17.224-26.809-26.328-57.896-26.328-89.903
			c0-32.008,9.104-63.097,26.328-89.905c11.387-17.723,25.844-32.966,42.969-45.305c28.455-20.502,62.083-31.339,97.251-31.339
			c35.169,0,68.798,10.837,97.251,31.339c17.125,12.339,31.582,27.582,42.969,45.305c17.224,26.808,26.328,57.896,26.328,89.905
			c0,32.008-9.104,63.096-26.328,89.903C429.056,408,414.6,423.242,397.473,435.583C369.02,456.087,335.391,466.924,300.222,466.924
			z M300.222,134.826c-34.957,0-68.383,10.771-96.667,31.15c-17.023,12.266-31.393,27.417-42.712,45.034
			c-17.12,26.646-26.169,57.548-26.169,89.364c0,31.815,9.049,62.716,26.169,89.362c11.318,17.616,25.688,32.769,42.712,45.035
			c28.283,20.379,61.709,31.151,96.667,31.151s68.384-10.772,96.667-31.151c17.024-12.268,31.395-27.419,42.711-45.035
			c17.121-26.646,26.17-57.547,26.17-89.362c0-31.816-9.049-62.718-26.17-89.364c-11.318-17.617-25.688-32.769-42.711-45.034
			C368.605,145.598,335.179,134.826,300.222,134.826z M202.762,116.148V58.64c0.001-8.712,7.089-15.8,15.801-15.8h163.318
			c8.712,0,15.8,7.088,15.8,15.8v57.508l-0.732-0.383c-5.167-2.707-10.415-5.191-15.6-7.385
			c-25.719-10.877-53.014-16.393-81.127-16.393c-28.114,0-55.409,5.516-81.127,16.394c-5.184,2.192-10.433,4.677-15.601,7.385
			L202.762,116.148z M203.762,58.64v55.857c4.956-2.572,9.979-4.938,14.943-7.038c25.842-10.931,53.268-16.473,81.517-16.473
			c28.247,0,55.674,5.542,81.517,16.472c4.965,2.1,9.987,4.466,14.942,7.038V58.64c0-8.161-6.639-14.8-14.8-14.8H218.562
			C210.402,43.84,203.763,50.479,203.762,58.64L203.762,58.64z"/>
	</g>
	<g>
		<path d="M408.863,278.955h-11.683h-72.934c-1.437,0-2.605-1.168-2.605-2.605v-55.715c0-11.83-9.59-21.42-21.42-21.42
			s-21.42,9.59-21.42,21.42v55.715c0,25.059,20.386,45.446,45.445,45.446h72.934h11.682c11.83,0,21.42-9.59,21.42-21.42
			C430.282,288.544,420.692,278.955,408.863,278.955z"/>
		<path d="M408.862,322.295h-84.615c-25.334,0-45.945-20.611-45.945-45.946v-55.715c0-12.087,9.833-21.92,21.92-21.92
			s21.92,9.833,21.92,21.92v55.715c0,1.161,0.944,2.105,2.105,2.105h84.616c12.086,0,21.919,9.833,21.919,21.92
			S420.949,322.295,408.862,322.295z M300.222,199.714c-11.535,0-20.92,9.385-20.92,20.92v55.715
			c0,24.783,20.163,44.946,44.945,44.946h84.615c11.535,0,20.92-9.385,20.92-20.92c0-11.536-9.384-20.92-20.919-20.92h-84.616
			c-1.712,0-3.105-1.393-3.105-3.105v-55.715C321.142,209.099,311.757,199.714,300.222,199.714z"/>
	</g>
</g>
<g>
</g>
<g>
</g>
<g>
</g>
<g>
</g>
<g>
</g>
<g>
</g>
<g>
</g>
<g>
</g>
<g>
</g>
<g>
</g>
<g>
</g>
<g>
</g>
<g>
</g>
<g>
</g>
<g>
</g>
</svg>
